<svg xmlns="http://www.w3.org/2000/svg" viewBox="0 0 400 400" width="400" height="400">
  <!-- Memory gallery thumbnail placeholder. Warm-neutral palette; swap for a
       square crop of a real photo. -->
  <defs>
    <linearGradient id="m1" x1="0" y1="0" x2="0" y2="1">
      <stop offset="0" stop-color="#DFC9A6" />
      <stop offset="1" stop-color="#F4EDE1" />
    </linearGradient>
  </defs>
  <rect width="400" height="400" fill="url(#m1)" />
  <circle cx="272" cy="140" r="52" fill="#B4674A" opacity="0.75" />
  <path d="M0 268c76-30 128 12 200 2s124-26 200-6v136H0z" fill="#9AA184" />
  <path d="M0 318c88-26 142 14 214 4s114-20 186-4v82H0z" fill="#6B7355" />
  <g fill="#3F4436">
    <circle cx="150" cy="270" r="20" />
    <path d="M150 296c19 0 30 16 32 42l6 66h-76l6-66c2-26 13-42 32-42z" />
  </g>
</svg>
