<svg xmlns="http://www.w3.org/2000/svg" viewBox="0 0 800 1000" width="800" height="1000">
  <defs>
    <linearGradient id="pmBody" x1="0" y1="0" x2="1" y2="0">
      <stop offset="0" stop-color="#FFFFFF" />
      <stop offset="0.62" stop-color="#FDF6F2" />
      <stop offset="1" stop-color="#F0DFD7" />
    </linearGradient>
    <clipPath id="pmBand">
      <rect x="292" y="474" width="216" height="168" rx="8" />
    </clipPath>
  </defs>

  <circle cx="400" cy="470" r="292" fill="#E8EFE6" opacity="0.8" />

  <g stroke="#D4A373" stroke-width="8" fill="none" stroke-linecap="round" opacity="0.55">
    <path d="M352 306c-22-26 22-46 0-72s16-44 16-44" />
    <path d="M418 296c-22-26 22-46 0-72s16-40 16-40" />
    <path d="M482 314c-18-22 18-38 0-60" />
  </g>

  <ellipse cx="400" cy="792" rx="158" ry="20" fill="#DCC6BC" opacity="0.45" />

  <path d="M528 480c64 0 98 32 98 78s-34 78-98 78" fill="none" stroke="#F3E2DA" stroke-width="40" stroke-linecap="round" />
  <path d="M528 480c64 0 98 32 98 78s-34 78-98 78" fill="none" stroke="#FFFFFF" stroke-width="26" stroke-linecap="round" />

  <path d="M270 402h260v320a58 58 0 0 1-58 58H328a58 58 0 0 1-58-58z" fill="url(#pmBody)" />

  <g clip-path="url(#pmBand)">
    <rect x="292" y="474" width="216" height="168" fill="#F9DDE0" />
    <circle cx="452" cy="524" r="30" fill="#D4A373" opacity="0.85" />
    <path d="M292 570c44-16 74 10 118 0s64-10 98 2v78H292z" fill="#7FA48D" />
    <path d="M400 642c-30-22-52-38-52-60a20 20 0 0 1 37-11 20 20 0 0 1 37 11c0 22-22 38-52 60z" fill="#B44B5E" opacity="0.9" />
  </g>
  <rect x="292" y="474" width="216" height="168" rx="8" fill="none" stroke="#FFFFFF" stroke-width="6" />

  <ellipse cx="400" cy="402" rx="130" ry="32" fill="#FFFFFF" />
  <ellipse cx="400" cy="404" rx="108" ry="22" fill="#EFD9D1" />
  <ellipse cx="400" cy="402" rx="130" ry="32" fill="none" stroke="#F0DFD7" stroke-width="4" />
</svg>
