<!--
  The BrandLogo mark (src/components/common/BrandLogo.jsx), reversed out of
  dusty rose. Same three strokes, same caramel tie and dot — keep the two in
  step if the mark is ever redrawn.
-->
<svg xmlns="http://www.w3.org/2000/svg" viewBox="0 0 64 64" width="64" height="64">
  <rect width="64" height="64" rx="14" fill="#B44B5E" />
  <g transform="translate(6.4 6.4) scale(1.6)">
    <g
      fill="none"
      stroke="#FFF7F3"
      stroke-width="1.8"
      stroke-linecap="round"
      stroke-linejoin="round"
    >
      <path d="M6 13.4v10a3.6 3.6 0 0 0 3.6 3.6h12.8a3.6 3.6 0 0 0 3.6-3.6v-10" />
      <path d="M6 13.4C5.2 7.2 8.5 4.4 11.6 5.8c2.5 1.1 3.9 4.4 4.4 7.6" />
      <path d="M26 13.4c.8-6.2-2.5-9-5.6-7.6-2.5 1.1-3.9 4.4-4.4 7.6" />
    </g>
    <path
      d="M16 13.4v2.7"
      fill="none"
      stroke="#E8C39E"
      stroke-width="1.8"
      stroke-linecap="round"
    />
    <circle cx="16" cy="20.6" r="2.1" fill="#E8C39E" />
  </g>
</svg>
